
7am Arivu ( 2011) - Tamil movie - Five Star DVDRip - ESubs -
Format                                   : AVI
Format/Info                              : Audio Video Interleave
File size                                : 708 MiB
Duration                                 : 2h 38mn
Overall bit rate                         : 624 Kbps

Video
ID                                       : 0
Format                                   : MPEG-4 Visual
Format profile                           : Advanced Simple@L5
Format settings, BVOP                    : 2
Format settings, QPel                    : Yes
Format settings, GMC                     : No warppoints
Format settings, Matrix                  : Default (H.263)
Codec ID                                 : XVID
Codec ID/Hint                            : XviD
Duration                                 : 2h 38mn
Bit rate                                 : 553 Kbps
Width                                    : 608 pixels
Height                                   : 288 pixels
Display aspect ratio                     : 2.2:1
Frame rate                               : 25.000 fps
Color space                              : YUV
Chroma subsampling                       : 4:2:0
Bit depth                                : 8 bits
Scan type                                : Progressive
Compression mode                         : Lossy
Bits/(Pixel*Frame)                       : 0.126
Stream size                              : 628 MiB (89%)

Audio
ID                                       : 1
Format                                   : MPEG Audio
Format version                           : Version 2
Format profile                           : Layer 3
Mode                                     : Joint stereo
Mode extension                           : MS Stereo
Codec ID                                 : 55
Codec ID/Hint                            : MP3
Duration                                 : 2h 38mn
Bit rate mode                            : Constant
Bit rate                                 : 64.0 Kbps
Channel(s)                               : 2 channels
Sampling rate                            : 24.0 KHz
Compression mode                         : Lossy
Stream size                              : 72.7 MiB (10%)

7am Arivu ( 2011) - Tamil movie - Five Star DVDRip - ESubs - MJY
 
http://img26.imageshack.us/img26/2690/shot0012fb.png
 
http://img521.imageshack.us/img521/6976/shot0013l.png
 
http://img10.imageshack.us/img10/4945/shot0016u.png
 
http://img705.imageshack.us/img705/294/shot0018p.png
 
http://img715.imageshack.us/img715/1041/shot0019y.png

